<svg id="Layer_1" data-name="Layer 1" xmlns="http://www.w3.org/2000/svg" viewBox="0 0 315.99 19.38"><defs><style>.cls-1{fill:#231f20;}</style></defs><title>Sonnier_Castle_Plain_BLK</title><path class="cls-1" d="M24.34,111.13a13.65,13.65,0,0,0,8.25,3.12c3.53,0,5.75-1.68,5.75-3.87,0-1.68-1.44-3-4.31-3.29-3.15-.24-5.65-0.27-7.6-1.16a4.15,4.15,0,0,1-2.64-3.8c0-2.84,2.77-5.1,7.15-5.1a15,15,0,0,1,8.83,3L38.45,102A11.75,11.75,0,0,0,31,99.18c-2.91,0-4.79,1.3-4.79,2.84a2,2,0,0,0,.89,1.64c1.58,1.2,4.21.92,7.6,1.3,3.87,0.44,6.09,2.67,6.09,5.48,0,3.18-2.94,5.92-8.15,5.92A15.07,15.07,0,0,1,23,113.11Z" transform="translate(-23.01 -97.02)"/><path class="cls-1" d="M46.26,106.71a9.57,9.57,0,1,1,9.55,9.65A9.32,9.32,0,0,1,46.26,106.71Zm16.74,0c0-4.38-3-7.53-7.19-7.53s-7.19,3.15-7.19,7.53a7.12,7.12,0,0,0,7.19,7.5C60,114.21,63,111.06,63,106.71Z" transform="translate(-23.01 -97.02)"/><path class="cls-1" d="M72.18,97.44h1.2l12,13.8V97.44h2.29v18.45H86.48l-12-13.8v13.8H72.18V97.44Z" transform="translate(-23.01 -97.02)"/><path class="cls-1" d="M95.62,97.44h1.2l12,13.8V97.44h2.29v18.45h-1.16l-12-13.8v13.8H95.62V97.44Z" transform="translate(-23.01 -97.02)"/><path class="cls-1" d="M119.08,97.33h2.33V116h-2.33V97.33Z" transform="translate(-23.01 -97.02)"/><path class="cls-1" d="M129.35,97.44h14.51v2.12H131.64V105H139v2.12h-7.39v6.68h13v2.12H129.35V97.44Z" transform="translate(-23.01 -97.02)"/><path class="cls-1" d="M150.42,97.44H161c3.63,0,5.79,1.92,5.79,5.13a5.13,5.13,0,0,1-4.38,5.2l4.62,8.11h-2.53l-4.62-8.08h-7.15v8.08h-2.29V97.44Zm10.44,8.22c2.33,0,3.53-1.06,3.53-3s-1.2-3.08-3.42-3.08h-8.25v6.09h8.15Z" transform="translate(-23.01 -97.02)"/><path class="cls-1" d="M231.64,111.37A9.63,9.63,0,1,1,223.15,97a9.32,9.32,0,0,1,8.08,4.31l-1.92,1.37a6.77,6.77,0,0,0-6.16-3.53c-4.11,0-7.19,3.15-7.19,7.53a7.12,7.12,0,0,0,7.19,7.5,7.24,7.24,0,0,0,6.64-4.21Z" transform="translate(-23.01 -97.02)"/><path class="cls-1" d="M244.57,97.44h1.92l9.14,18.45h-2.5l-2.5-5h-10.2l-2.43,5h-2.46Zm5,11.33-4.07-8.18-4,8.18h8.11Z" transform="translate(-23.01 -97.02)"/><path class="cls-1" d="M261.17,111.13a13.65,13.65,0,0,0,8.25,3.12c3.53,0,5.75-1.68,5.75-3.87,0-1.68-1.44-3-4.31-3.29-3.15-.24-5.65-0.27-7.6-1.16a4.15,4.15,0,0,1-2.64-3.8c0-2.84,2.77-5.1,7.15-5.1a15,15,0,0,1,8.83,3L275.27,102a11.75,11.75,0,0,0-7.46-2.77c-2.91,0-4.79,1.3-4.79,2.84a2,2,0,0,0,.89,1.64c1.58,1.2,4.21.92,7.6,1.3,3.87,0.44,6.09,2.67,6.09,5.48,0,3.18-2.94,5.92-8.15,5.92a15.08,15.08,0,0,1-9.62-3.25Z" transform="translate(-23.01 -97.02)"/><path class="cls-1" d="M289,99.56h-7.77V97.44h17.83v2.12h-7.77v16.33H289V99.56Z" transform="translate(-23.01 -97.02)"/><path class="cls-1" d="M303.83,97.44h2.29v16.33h12v2.12H303.83V97.44Z" transform="translate(-23.01 -97.02)"/><path class="cls-1" d="M323.73,97.44h14.51v2.12H326V105h7.39v2.12H326v6.68h13v2.12H323.73V97.44Z" transform="translate(-23.01 -97.02)"/><path class="cls-1" d="M197.06,111.95l3.29,3.8H197.4l-2.05-2.33c-2.36,2-4.52,3-7.15,3-4.18,0-6.88-2.36-6.88-6,0-2.94,1.81-5.13,5.55-7l-5.07-6h12.12l1.27,2h-8.66l9,10.65A19.34,19.34,0,0,0,197.4,108l1.47,1.88A12.43,12.43,0,0,1,197.06,111.95Zm-8.76-6.88c-3,1.3-4.55,3-4.55,5.24s1.78,3.94,4.41,3.94a8.75,8.75,0,0,0,5.82-2.5Z" transform="translate(-23.01 -97.02)"/></svg>