<svg id="Layer_1" data-name="Layer 1" xmlns="http://www.w3.org/2000/svg" viewBox="0 0 315.99 81.57"><defs><style>.cls-1{fill:#231f20;}</style></defs><title>Sonnier_Castle_Provenance_BLK</title><path class="cls-1" d="M128.08,138h0.72L136,146.3V138h1.38v11.07h-0.7l-7.21-8.28v8.28h-1.38V138Z" transform="translate(-23.01 -67.81)"/><path class="cls-1" d="M142.62,138h8.71v1.27H144v3.25h4.44v1.27H144v4h7.78v1.27h-9.16V138Z" transform="translate(-23.01 -67.81)"/><path class="cls-1" d="M154.7,138h1.36l2.75,8.54,2.81-8.54h1.23l2.81,8.52,2.75-8.52h1.31l-3.59,11.07h-1l-2.92-8.91-2.9,8.91h-1Z" transform="translate(-23.01 -67.81)"/><path class="cls-1" d="M185.34,143.55l-5-5.52h1.73l4,4.37L190,138h1.75l-5,5.54v5.52h-1.38v-5.54Z" transform="translate(-23.01 -67.81)"/><path class="cls-1" d="M193.3,143.59a5.74,5.74,0,1,1,5.73,5.79A5.59,5.59,0,0,1,193.3,143.59Zm10,0a4.32,4.32,0,1,0-4.31,4.5A4.28,4.28,0,0,0,203.34,143.59Z" transform="translate(-23.01 -67.81)"/><path class="cls-1" d="M209.29,138h6.35c2.18,0,3.47,1.15,3.47,3.08a3.08,3.08,0,0,1-2.63,3.12l2.77,4.87h-1.52L215,144.25h-4.29v4.85h-1.38V138Zm6.26,4.93c1.4,0,2.12-.64,2.12-1.81a1.78,1.78,0,0,0-2.05-1.85h-4.95V143h4.89Z" transform="translate(-23.01 -67.81)"/><path class="cls-1" d="M223.71,138h1.38v5.52l6.35-5.52h1.81l-4.48,3.94,5.15,7.15h-1.66l-4.48-6.2-2.69,2.26v3.94h-1.38V138Z" transform="translate(-23.01 -67.81)"/><path class="cls-1" d="M149.62,67.91h5.8v0.85h-4.89v2.16h3v0.85h-3v2.67h5.19v0.85h-6.11V67.91Z" transform="translate(-23.01 -67.81)"/><path class="cls-1" d="M160.29,69.55c-0.92,0-1.27-.12-1.27-0.45s0.41-.55,1-0.55a3.23,3.23,0,0,1,1.71.55l0.06,0,0.41-.67-0.06,0a3.89,3.89,0,0,0-2.11-.63c-1.11,0-1.83.51-1.83,1.29,0,1,.77,1.17,2.11,1.19,0.88,0,1.27.23,1.27,0.67a1,1,0,0,1-1.21.76,3.63,3.63,0,0,1-1.92-.61l-0.06,0-0.4.68,0.06,0a4.54,4.54,0,0,0,2.4.69c1.29,0,2-.74,2-1.48S162,69.55,160.29,69.55Z" transform="translate(-23.01 -67.81)"/><polygon class="cls-1" points="140.91 0.11 140.91 0.85 142.72 0.85 142.72 4.53 143.52 4.53 143.52 0.85 145.33 0.85 145.33 0.11 140.91 0.11"/><path class="cls-1" d="M179.74,68.24h0.93v7.09h-0.93V68.24Z" transform="translate(-23.01 -67.81)"/><path class="cls-1" d="M188.13,74.62c1.68,0,2.83-.85,3.05-2.2a6.49,6.49,0,0,1-3.16.82c-2.07,0-3.5-1.09-3.5-2.56s1.29-2.57,3.38-2.57c2.61,0,4.33,1.7,4.33,3.74s-1.63,3.64-4.05,3.64A4.73,4.73,0,0,1,185,74.28l0.55-.63A4.2,4.2,0,0,0,188.13,74.62ZM187.89,69c-1.44,0-2.41.84-2.41,1.71s1.09,1.71,2.52,1.71a6,6,0,0,0,3.19-1A3.16,3.16,0,0,0,187.89,69Z" transform="translate(-23.01 -67.81)"/><path class="cls-1" d="M198.57,74.62c1.68,0,2.83-.85,3.05-2.2a6.49,6.49,0,0,1-3.16.82c-2.07,0-3.5-1.09-3.5-2.56s1.29-2.57,3.38-2.57c2.61,0,4.33,1.7,4.33,3.74s-1.63,3.64-4.05,3.64a4.74,4.74,0,0,1-3.22-1.21l0.55-.63A4.2,4.2,0,0,0,198.57,74.62ZM198.32,69c-1.44,0-2.41.84-2.41,1.71s1.09,1.71,2.52,1.71a6,6,0,0,0,3.19-1A3.16,3.16,0,0,0,198.32,69Z" transform="translate(-23.01 -67.81)"/><path class="cls-1" d="M210.65,69.13h-5.41V68.27h7.13l-5,7h-1.08Z" transform="translate(-23.01 -67.81)"/><path class="cls-1" d="M164.21,74.88a0.56,0.56,0,0,1-.55.6,0.57,0.57,0,0,1-.56-0.6,0.58,0.58,0,0,1,.56-0.62A0.57,0.57,0,0,1,164.21,74.88Z" transform="translate(-23.01 -67.81)"/><path class="cls-1" d="M24.34,111.13a13.65,13.65,0,0,0,8.25,3.12c3.53,0,5.75-1.68,5.75-3.87,0-1.68-1.44-3-4.31-3.29-3.15-.24-5.65-0.27-7.6-1.16a4.15,4.15,0,0,1-2.64-3.8c0-2.84,2.77-5.1,7.15-5.1a15,15,0,0,1,8.83,3L38.45,102A11.75,11.75,0,0,0,31,99.18c-2.91,0-4.79,1.3-4.79,2.84a2,2,0,0,0,.89,1.64c1.58,1.2,4.21.92,7.6,1.3,3.87,0.44,6.09,2.67,6.09,5.48,0,3.18-2.94,5.92-8.15,5.92A15.07,15.07,0,0,1,23,113.11Z" transform="translate(-23.01 -67.81)"/><path class="cls-1" d="M46.26,106.71a9.57,9.57,0,1,1,9.55,9.65A9.32,9.32,0,0,1,46.26,106.71Zm16.74,0c0-4.38-3-7.53-7.19-7.53s-7.19,3.15-7.19,7.53a7.12,7.12,0,0,0,7.19,7.5C60,114.21,63,111.06,63,106.71Z" transform="translate(-23.01 -67.81)"/><path class="cls-1" d="M72.18,97.44h1.2l12,13.8V97.44h2.29v18.45H86.48l-12-13.8v13.8H72.18V97.44Z" transform="translate(-23.01 -67.81)"/><path class="cls-1" d="M95.62,97.44h1.2l12,13.8V97.44h2.29v18.45h-1.16l-12-13.8v13.8H95.62V97.44Z" transform="translate(-23.01 -67.81)"/><path class="cls-1" d="M119.08,97.33h2.33V116h-2.33V97.33Z" transform="translate(-23.01 -67.81)"/><path class="cls-1" d="M129.35,97.44h14.51v2.12H131.64V105H139v2.12h-7.39v6.68h13v2.12H129.35V97.44Z" transform="translate(-23.01 -67.81)"/><path class="cls-1" d="M150.42,97.44H161c3.63,0,5.79,1.92,5.79,5.13a5.13,5.13,0,0,1-4.38,5.2l4.62,8.11h-2.53l-4.62-8.08h-7.15v8.08h-2.29V97.44Zm10.44,8.22c2.33,0,3.53-1.06,3.53-3s-1.2-3.08-3.42-3.08h-8.25v6.09h8.15Z" transform="translate(-23.01 -67.81)"/><path class="cls-1" d="M231.64,111.37A9.63,9.63,0,1,1,223.15,97a9.32,9.32,0,0,1,8.08,4.31l-1.92,1.37a6.77,6.77,0,0,0-6.16-3.53c-4.11,0-7.19,3.15-7.19,7.53a7.12,7.12,0,0,0,7.19,7.5,7.24,7.24,0,0,0,6.64-4.21Z" transform="translate(-23.01 -67.81)"/><path class="cls-1" d="M244.57,97.44h1.92l9.14,18.45h-2.5l-2.5-5h-10.2l-2.43,5h-2.46Zm5,11.33-4.07-8.18-4,8.18h8.11Z" transform="translate(-23.01 -67.81)"/><path class="cls-1" d="M261.17,111.13a13.65,13.65,0,0,0,8.25,3.12c3.53,0,5.75-1.68,5.75-3.87,0-1.68-1.44-3-4.31-3.29-3.15-.24-5.65-0.27-7.6-1.16a4.15,4.15,0,0,1-2.64-3.8c0-2.84,2.77-5.1,7.15-5.1a15,15,0,0,1,8.83,3L275.27,102a11.75,11.75,0,0,0-7.46-2.77c-2.91,0-4.79,1.3-4.79,2.84a2,2,0,0,0,.89,1.64c1.58,1.2,4.21.92,7.6,1.3,3.87,0.44,6.09,2.67,6.09,5.48,0,3.18-2.94,5.92-8.15,5.92a15.08,15.08,0,0,1-9.62-3.25Z" transform="translate(-23.01 -67.81)"/><path class="cls-1" d="M289,99.56h-7.77V97.44h17.83v2.12h-7.77v16.33H289V99.56Z" transform="translate(-23.01 -67.81)"/><path class="cls-1" d="M303.83,97.44h2.29v16.33h12v2.12H303.83V97.44Z" transform="translate(-23.01 -67.81)"/><path class="cls-1" d="M323.73,97.44h14.51v2.12H326V105h7.39v2.12H326v6.68h13v2.12H323.73V97.44Z" transform="translate(-23.01 -67.81)"/><path class="cls-1" d="M197.06,111.95l3.29,3.8H197.4l-2.05-2.33c-2.36,2-4.52,3-7.15,3-4.18,0-6.88-2.36-6.88-6,0-2.94,1.81-5.13,5.55-7l-5.07-6h12.12l1.27,2h-8.66l9,10.65A19.34,19.34,0,0,0,197.4,108l1.47,1.88A12.43,12.43,0,0,1,197.06,111.95Zm-8.76-6.88c-3,1.3-4.55,3-4.55,5.24s1.78,3.94,4.41,3.94a8.75,8.75,0,0,0,5.82-2.5Z" transform="translate(-23.01 -67.81)"/></svg>